<?xml version="1.0" encoding="UTF-8"?>
<svg width="32px" height="32px" viewBox="0 0 32 32" version="1.1" xmlns="http://www.w3.org/2000/svg" xmlns:xlink="http://www.w3.org/1999/xlink">
    <!-- Generator: Sketch 50.2 (55047) - http://www.bohemiancoding.com/sketch -->
    <title>dribble-logo</title>
    <desc>Created with Sketch.</desc>
    <defs></defs>
    <g id="Symbols" stroke="none" stroke-width="1" fill="none" fill-rule="evenodd">
        <g id="footer" transform="translate(-1072.000000, -283.000000)" fill="#090509" fill-rule="nonzero">
            <g id="Socials">
                <g transform="translate(1008.000000, 283.000000)">
                    <g id="dribble-logo" transform="translate(64.000000, 0.000000)">
                        <path d="M15.9849116,0 C7.17120629,0 0,7.17120629 0,15.9849116 C0,24.7986169 7.17120629,31.9698232 15.9849116,31.9698232 C24.7986169,31.9698232 31.9698232,24.7986169 31.9698232,15.9849116 C31.9698232,7.17120629 24.798554,0 15.9849116,0 Z M26.5528959,7.37106483 C28.4551041,9.69486837 29.6040236,12.6540825 29.6340118,15.8770295 C29.1824283,15.7810923 24.6726916,14.8659804 20.1269941,15.4374538 L19.8332731,14.7321336 C19.5495481,14.0667348 19.245831,13.4053595 18.9281572,12.7539804 C23.9773674,10.6939096 26.2652102,7.76066012 26.5528959,7.37106483 Z M15.9849116,2.35177996 C19.453611,2.35177996 22.6246287,3.65252652 25.0343733,5.79250295 C24.7906326,6.14217682 22.7365344,8.9035442 17.8811473,10.723835 C15.6432849,6.61368959 13.1636306,3.23690373 12.7859804,2.73137917 C13.8129352,2.4836778 14.8839607,2.35177996 15.9849116,2.35177996 Z M10.1804008,3.64856582 C10.5400707,4.14208251 12.9797407,7.52289194 15.2416189,11.5450845 C8.85563851,13.2414617 3.23099411,13.2175088 2.61953635,13.2095246 C3.50466012,8.97150491 6.36001572,5.45087623 10.1804008,3.64856582 Z M2.32977603,16.0049037 L2.33574853,15.5872692 C2.93318664,15.6012259 9.55096267,15.6851552 16.3665226,13.6450766 C16.7601415,14.4103733 17.1318193,15.1876149 17.4754578,15.9629077 L16.9359843,16.1247308 C9.89661297,18.4005658 6.1501611,24.6067426 5.83845972,25.1342083 C3.66057367,22.7145305 2.33178782,19.5135874 2.32977603,16.0049037 Z M15.9828998,29.6579646 C12.8278507,29.6579646 9.9186169,28.5829784 7.60279764,26.7767073 C7.8485501,26.2771552 10.6139411,20.934224 18.3146876,18.2507505 L18.4045894,18.2207623 C20.3227662,23.2000629 21.1120157,27.3760943 21.3178468,28.5749941 C19.6813831,29.2723301 17.8771238,29.6599764 15.9828998,29.6579646 Z M23.6136739,27.324165 C23.4737917,26.4929194 22.7445187,22.4967544 20.9622004,17.5893752 C25.2401415,16.9040472 28.9986012,18.0269391 29.4661532,18.1748055 C28.8547583,21.9712377 26.6788212,25.2541611 23.6136739,27.324165 Z" id="Shape"></path>
                    </g>
                </g>
            </g>
        </g>
    </g>
</svg>