<?xml version="1.0" encoding="UTF-8"?>
<svg width="32px" height="31px" viewBox="0 0 32 31" version="1.1" xmlns="http://www.w3.org/2000/svg" xmlns:xlink="http://www.w3.org/1999/xlink">
    <!-- Generator: Sketch 50.2 (55047) - http://www.bohemiancoding.com/sketch -->
    <title>github-logo</title>
    <desc>Created with Sketch.</desc>
    <defs></defs>
    <g id="Symbols" stroke="none" stroke-width="1" fill="none" fill-rule="evenodd">
        <g id="footer" transform="translate(-1008.000000, -283.000000)" fill="#000000" fill-rule="nonzero">
            <g id="Socials">
                <g transform="translate(1008.000000, 283.000000)">
                    <g id="github-logo">
                        <path d="M29.3663818,7.86485183 C27.958973,5.45342235 26.0499127,3.54429028 23.6386985,2.13702494 C21.2271255,0.729687822 18.5944066,0.026198707 15.7386758,0.026198707 C12.8833039,0.026198707 10.2497237,0.729903153 7.83865312,2.13702494 C5.42722364,3.5442185 3.51823512,5.45342235 2.11082623,7.86485183 C0.703632669,10.2762095 0,12.9094308 0,15.7644439 C0,19.1939623 1.00057527,22.2778731 3.00222826,25.0169658 C5.00366592,27.7562739 7.58922707,29.6517683 10.7586964,30.7036643 C11.1276316,30.7721399 11.4007442,30.7239773 11.5783212,30.5603969 C11.7559699,30.3966011 11.8446866,30.1914617 11.8446866,29.9458398 C11.8446866,29.904855 11.8411695,29.5361351 11.8343507,28.8392495 C11.8273165,28.1423639 11.8240148,27.5344103 11.8240148,27.0156759 L11.3526534,27.0972149 C11.0521219,27.1522681 10.6729943,27.1755957 10.2152706,27.1689922 C9.75776224,27.162604 9.28281198,27.1146568 8.79106584,27.0255094 C8.29910437,26.9371516 7.84152421,26.7322275 7.41796649,26.4111677 C6.99462409,26.0901079 6.69409262,25.669852 6.51644386,25.1510458 L6.31151973,24.6794691 C6.17492756,24.3655152 5.95988283,24.0167494 5.66609843,23.6344636 C5.37231403,23.251819 5.07522787,22.9924159 4.7746964,22.8558237 L4.63121362,22.7531104 C4.53560628,22.6848502 4.44688956,22.6025217 4.36484813,22.5069861 C4.28287848,22.4114506 4.22150891,22.3158433 4.18052408,22.2200924 C4.13946748,22.1242697 4.17348991,22.0456736 4.28295026,21.9840169 C4.39241061,21.9223602 4.59022879,21.8924291 4.87726613,21.8924291 L5.28697084,21.9536551 C5.56022694,22.0084212 5.89822615,22.1720016 6.30139913,22.4454012 C6.70435678,22.7185856 7.03560892,23.0737395 7.29522734,23.5107196 C7.60961182,24.0710131 7.98838053,24.4979443 8.43261011,24.7917287 C8.8764808,25.0855131 9.32401214,25.2321541 9.77477345,25.2321541 C10.2255348,25.2321541 10.6148547,25.1979881 10.9428769,25.130015 C11.2705402,25.0616831 11.5779623,24.9589698 11.8649996,24.8224494 C11.9879541,23.9067149 12.3227233,23.2032258 12.8690202,22.7114796 C12.0903803,22.6296535 11.3903365,22.5064119 10.7685299,22.3425444 C10.1470822,22.1784615 9.50489088,21.9121678 8.84238659,21.5429455 C8.17952342,21.1742256 7.62963768,20.7163584 7.19258583,20.1701333 C6.7554622,19.6236211 6.39671936,18.9061354 6.11685974,18.0183222 C5.83685658,17.1301502 5.69681911,16.1056013 5.69681911,14.9443884 C5.69681911,13.2909988 6.23658425,11.8840206 7.3158992,10.7226642 C6.81030004,9.47962528 6.85803193,8.08614118 7.45923842,6.54235546 C7.855449,6.41925742 8.44301781,6.51163478 9.22165774,6.81891331 C10.0004412,7.1263354 10.5706399,7.38968624 10.9328281,7.60803272 C11.2950162,7.82630743 11.5852118,8.01127748 11.8038454,8.16129199 C13.0746621,7.80620979 14.3861048,7.6286328 15.7385323,7.6286328 C17.0909598,7.6286328 18.4026895,7.80620979 19.673578,8.16129199 L20.4522897,7.6696894 C20.9848054,7.34166724 21.6136461,7.04106399 22.3373047,6.76780789 C23.0613939,6.49469534 23.6150838,6.41947275 23.9978002,6.54257079 C24.6123573,8.08642829 24.6671234,9.47984061 24.1613807,10.7228795 C25.2406238,11.8842359 25.7806043,13.291573 25.7806043,14.9446038 C25.7806043,16.1058166 25.6400644,17.1335955 25.3604919,18.0285864 C25.0805605,18.9237208 24.7187312,19.6404887 24.2748605,20.1803974 C23.8304874,20.7202343 23.2770846,21.1745127 22.6145803,21.5431608 C21.9519324,21.9120961 21.3095258,22.1783898 20.6880781,22.3424726 C20.0663433,22.5065555 19.3662995,22.6298688 18.5876596,22.7118385 C19.297824,23.3263956 19.652978,24.2964655 19.652978,25.6216176 L19.652978,29.9452656 C19.652978,30.1908875 19.7383929,30.3959551 19.9093664,30.5598227 C20.0801246,30.7234031 20.3497918,30.7715656 20.718727,30.7030183 C23.888627,29.6512659 26.4741882,27.7556997 28.475554,25.0163916 C30.4767046,22.2772989 31.4776387,19.193388 31.4776387,15.7638696 C31.476921,12.9092155 30.7729294,10.2762095 29.3663818,7.86485183 Z" id="Shape"></path>
                    </g>
                </g>
            </g>
        </g>
    </g>
</svg>