<?xml version="1.0" encoding="UTF-8"?>
<svg width="32px" height="31px" viewBox="0 0 32 31" version="1.1" xmlns="http://www.w3.org/2000/svg" xmlns:xlink="http://www.w3.org/1999/xlink">
    <!-- Generator: Sketch 50.2 (55047) - http://www.bohemiancoding.com/sketch -->
    <title>linkedin-letters</title>
    <desc>Created with Sketch.</desc>
    <defs></defs>
    <g id="Symbols" stroke="none" stroke-width="1" fill="none" fill-rule="evenodd">
        <g id="footer" transform="translate(-1136.000000, -284.000000)" fill="#000000" fill-rule="nonzero">
            <g id="Socials">
                <g transform="translate(1008.000000, 283.000000)">
                    <g id="linkedin-letters" transform="translate(128.000000, 1.000000)">
                        <rect id="Rectangle-path" x="0.395371298" y="9.97867882" width="6.86768109" height="20.6237449"></rect>
                        <path d="M29.8016948,11.8625239 C28.3590706,10.2877449 26.4510251,9.50020957 24.0787244,9.50020957 C23.2046651,9.50020957 22.4101321,9.60772665 21.6954897,9.82290661 C20.9810661,10.0379408 20.3776583,10.3396446 19.8849749,10.728164 C19.3925831,11.1166834 19.0004191,11.4773576 18.7092847,11.8101868 C18.4324374,12.1263235 18.161713,12.4945786 17.897549,12.9111617 L17.897549,9.97853303 L11.0503508,9.97853303 L11.071344,10.9776036 C11.0854123,11.6437722 11.0923371,13.6970205 11.0923371,17.1376401 C11.0923371,20.5785513 11.0784875,25.0667153 11.0506424,30.6025695 L17.897549,30.6025695 L17.897549,19.0937221 C17.897549,18.3862961 17.9734305,17.8245103 18.1263599,17.4079271 C18.4179317,16.6999909 18.8579863,16.1072984 19.4479818,15.6288292 C20.0379043,15.1497768 20.7695308,14.9104692 21.6438815,14.9104692 C22.8367016,14.9104692 23.7145513,15.3231891 24.2765558,16.1487016 C24.8383417,16.9741412 25.1192711,18.1153531 25.1192711,19.5721913 L25.1192711,30.6019134 L31.9661777,30.6019134 L31.9661777,18.7818861 C31.9656674,15.7431253 31.2447563,13.4367927 29.8016948,11.8625239 Z" id="Shape"></path>
                        <path d="M3.87083371,0.0516082005 C2.71941686,0.0516082005 1.78646014,0.388300683 1.07174487,1.06102961 C0.357102506,1.73390433 0,2.58339863 0,3.61031435 C0,4.62287016 0.346824601,5.46944875 1.0405467,6.14910251 C1.73405011,6.82882916 2.64987699,7.16887472 3.78751708,7.16887472 L3.82913895,7.16887472 C4.99469704,7.16887472 5.93479727,6.82912073 6.64922096,6.14910251 C7.36364465,5.46944875 7.71389522,4.62316173 7.70011845,3.61031435 C7.68626879,2.58347153 7.33222779,1.73390433 6.63872437,1.06102961 C5.94529385,0.388009112 5.02232346,0.0516082005 3.87083371,0.0516082005 Z" id="Shape"></path>
                    </g>
                </g>
            </g>
        </g>
    </g>
</svg>
