<?xml version="1.0" standalone="no"?>
<!DOCTYPE svg PUBLIC "-//W3C//DTD SVG 20010904//EN"
 "http://www.w3.org/TR/2001/REC-SVG-20010904/DTD/svg10.dtd">
<svg version="1.0" xmlns="http://www.w3.org/2000/svg"
 width="356.000000pt" height="356.000000pt" viewBox="0 0 356.000000 356.000000"
 preserveAspectRatio="xMidYMid meet">
<metadata>
Created by potrace 1.11, written by Peter Selinger 2001-2013
</metadata>
<g transform="translate(0.000000,356.000000) scale(0.100000,-0.100000)"
fill="#000000" stroke="none">
<path d="M1515 3520 c-11 -5 -40 -9 -63 -9 -42 -1 -154 -25 -197 -42 -19 -7
-40 -12 -107 -26 -16 -3 -28 -9 -28 -14 0 -5 -9 -9 -20 -9 -17 0 -99 -33 -152
-61 -10 -5 -25 -9 -33 -9 -8 0 -15 -4 -15 -8 0 -4 -12 -13 -27 -19 -37 -15
-87 -46 -91 -55 -2 -5 -12 -8 -22 -8 -10 0 -20 -3 -22 -8 -1 -4 -25 -25 -53
-47 -61 -50 -70 -59 -120 -120 -22 -28 -45 -56 -52 -63 -7 -7 -13 -17 -13 -22
0 -5 -6 -15 -13 -22 -17 -19 -34 -46 -55 -88 -9 -19 -20 -36 -24 -38 -5 -2 -8
-12 -8 -23 0 -10 -3 -19 -7 -19 -5 0 -17 -20 -28 -45 -11 -25 -23 -45 -27 -45
-5 0 -8 -11 -8 -25 0 -14 -4 -25 -10 -25 -5 0 -10 -7 -10 -15 0 -8 -11 -40
-25 -71 -14 -31 -25 -65 -25 -75 0 -11 -4 -19 -10 -19 -5 0 -10 -16 -10 -35 0
-19 -4 -35 -9 -35 -5 0 -11 -19 -14 -42 -4 -24 -11 -77 -17 -118 -11 -81 -4
-423 10 -450 5 -9 9 -49 10 -90 2 -76 15 -130 31 -130 5 0 9 -19 9 -41 0 -30
-6 -47 -22 -60 -26 -23 -32 -23 -52 -4 -8 8 -19 15 -23 15 -5 0 -15 16 -23 35
-17 44 -26 44 -34 3 -11 -61 -14 -148 -5 -148 5 0 9 -24 9 -54 0 -30 5 -58 10
-61 6 -3 10 -24 10 -46 0 -21 4 -39 9 -39 5 0 12 -16 15 -35 4 -19 11 -35 16
-35 6 0 10 -9 10 -20 0 -11 5 -20 10 -20 6 0 10 -7 10 -15 0 -8 5 -15 10 -15
6 0 10 -6 10 -14 0 -8 18 -28 39 -45 34 -27 46 -31 104 -31 39 0 68 -5 75 -12
19 -25 52 -89 52 -103 0 -8 5 -15 10 -15 6 0 10 -6 10 -14 0 -7 7 -19 15 -26
8 -7 15 -21 15 -31 0 -11 5 -19 10 -19 6 0 10 -7 10 -15 0 -8 5 -15 10 -15 6
0 10 -7 10 -16 0 -8 6 -22 13 -29 26 -30 37 -44 37 -49 0 -24 274 -292 312
-305 10 -3 31 -19 62 -46 22 -20 96 -65 106 -65 5 0 10 -4 10 -10 0 -5 6 -10
13 -10 13 0 59 -19 99 -41 10 -5 25 -9 33 -9 8 0 15 -4 15 -10 0 -5 11 -10 25
-10 14 0 25 -4 25 -10 0 -5 11 -10 24 -10 13 0 37 -7 52 -15 16 -8 41 -15 56
-15 15 0 30 -4 33 -10 3 -5 33 -10 65 -10 32 0 62 -4 65 -10 8 -13 362 -13
370 0 3 5 27 10 52 10 46 0 61 3 159 34 29 9 59 16 68 16 9 0 16 5 16 10 0 6
9 10 19 10 11 0 23 5 26 10 3 6 15 10 26 10 10 0 19 5 19 10 0 6 6 10 14 10
18 0 76 32 76 43 0 4 9 7 20 7 11 0 20 5 20 10 0 6 5 10 11 10 6 0 17 6 24 12
33 30 45 38 55 38 5 0 10 5 10 10 0 6 6 10 13 10 7 0 33 18 57 40 25 22 56 48
70 56 14 9 50 45 80 81 30 35 67 79 82 96 16 18 28 38 28 45 0 6 5 12 10 12 6
0 10 6 10 14 0 8 3 16 8 18 10 4 62 85 62 97 0 5 3 11 8 13 4 2 32 51 62 110
30 60 57 108 60 109 3 0 33 1 66 2 61 2 62 3 113 56 32 33 51 62 51 77 0 13 4
24 9 24 5 0 11 12 14 28 50 241 57 311 36 371 -11 32 -29 42 -29 16 0 -20 -53
-75 -71 -75 -8 0 -22 7 -33 15 -16 12 -17 22 -11 72 4 32 9 62 12 67 3 5 8 51
10 103 2 52 8 106 14 119 13 35 12 374 -2 448 -6 34 -20 99 -31 146 -11 47
-23 102 -25 123 -3 20 -9 40 -14 43 -5 3 -9 18 -9 34 0 16 -4 32 -10 35 -5 3
-10 16 -10 28 0 12 -7 31 -15 41 -8 11 -15 28 -15 38 0 10 -4 18 -10 18 -5 0
-10 9 -10 19 0 11 -4 23 -10 26 -5 3 -10 15 -10 25 0 10 -3 20 -7 22 -10 4
-63 85 -63 96 0 4 -9 14 -20 22 -11 8 -20 18 -20 22 0 17 -134 156 -185 193
-16 11 -33 25 -40 30 -27 24 -182 105 -201 105 -8 0 -22 4 -32 9 -46 23 -95
41 -112 41 -11 0 -20 5 -20 10 0 6 -16 10 -35 10 -19 0 -35 5 -35 10 0 6 -13
10 -30 10 -16 0 -39 4 -52 9 -39 15 -120 33 -193 43 -90 13 -584 20 -610 8z
m307 -1092 c51 -26 127 -54 168 -63 41 -9 89 -21 106 -26 17 -5 49 -9 72 -9
22 0 44 -4 47 -10 3 -5 19 -10 35 -10 29 0 109 -11 243 -32 37 -6 67 -15 67
-20 0 -4 9 -8 19 -8 11 0 26 -7 35 -15 8 -8 24 -15 35 -15 12 0 21 -4 21 -10
0 -5 9 -10 20 -10 11 0 20 -4 20 -10 0 -5 11 -10 25 -10 16 0 25 -6 25 -15 0
-8 5 -15 10 -15 6 0 10 -9 10 -19 0 -11 7 -26 15 -35 8 -8 15 -24 15 -35 0
-12 5 -21 10 -21 6 0 10 -4 10 -10 0 -5 -9 -10 -20 -10 -11 0 -20 5 -20 10 0
6 -16 10 -35 10 -19 0 -35 -4 -35 -10 0 -5 5 -10 10 -10 6 0 10 -8 10 -17 0
-17 22 -49 70 -100 11 -12 20 -27 20 -33 0 -5 5 -10 10 -10 6 0 10 -13 10 -30
0 -21 -5 -30 -16 -30 -20 0 -44 24 -44 45 0 9 -6 22 -12 31 -60 70 -104 104
-136 104 -10 0 -22 4 -27 9 -24 21 -184 43 -281 39 -87 -3 -102 -7 -126 -28
-30 -25 -36 -56 -15 -82 13 -18 129 -38 217 -38 27 0 52 -4 55 -10 3 -5 19
-10 35 -10 16 0 42 -5 57 -11 45 -18 138 -63 143 -70 3 -4 33 -13 68 -19 61
-12 62 -13 62 -46 0 -19 5 -34 10 -34 6 0 10 -13 10 -28 0 -15 5 -33 10 -38 6
-6 13 -34 17 -62 3 -29 10 -52 14 -52 5 0 9 -13 9 -30 0 -16 -4 -30 -10 -30
-6 0 -10 -29 -10 -67 0 -38 -5 -75 -10 -83 -7 -10 -10 7 -10 56 0 59 -5 80
-27 120 -15 27 -31 51 -35 52 -4 2 -8 8 -8 13 0 13 -76 89 -89 89 -6 0 -11 4
-11 9 0 16 -158 81 -200 81 -22 0 -40 5 -40 10 0 6 -16 10 -35 10 -19 0 -35
-4 -35 -10 0 -5 -18 -10 -41 -10 -23 0 -64 -11 -96 -26 -63 -30 -155 -118
-173 -166 -6 -18 -16 -42 -20 -53 -18 -41 -22 -119 -7 -139 13 -18 15 -15 21
32 4 29 11 52 16 52 6 0 10 11 10 25 0 14 5 25 10 25 6 0 10 9 10 20 0 11 5
20 10 20 6 0 10 6 10 13 0 19 56 77 74 77 21 0 20 -9 -2 -29 -25 -23 -52 -67
-52 -86 0 -8 -4 -15 -10 -15 -6 0 -10 -27 -10 -60 0 -46 6 -70 28 -108 36 -65
64 -102 78 -102 6 0 17 -7 24 -15 7 -8 21 -15 31 -15 11 0 19 -4 19 -10 0 -6
37 -10 90 -10 53 0 90 4 90 10 0 6 8 10 19 10 22 0 121 91 121 112 0 8 5 19
11 25 15 15 14 196 -1 201 -5 2 -10 13 -10 24 0 10 -6 25 -12 31 -30 28 -88
67 -99 67 -9 0 -10 3 -2 11 8 8 19 6 41 -5 17 -9 38 -16 47 -16 8 0 15 -4 15
-10 0 -5 5 -10 10 -10 23 0 130 -107 130 -130 0 -6 4 -18 9 -28 36 -73 54
-208 30 -223 -8 -4 -10 -11 -6 -15 4 -4 15 3 26 14 10 12 21 22 25 22 3 0 6
-34 6 -75 0 -43 -4 -75 -10 -75 -5 0 -10 -20 -10 -45 0 -25 -4 -45 -10 -45 -5
0 -10 -11 -10 -25 0 -14 -4 -25 -10 -25 -5 0 -10 -11 -10 -23 0 -13 -11 -37
-25 -53 -14 -16 -25 -35 -25 -41 0 -7 -4 -13 -10 -13 -5 0 -10 -11 -10 -25 0
-14 -5 -25 -10 -25 -15 0 -53 -40 -70 -75 -15 -30 -126 -145 -140 -145 -4 0
-24 -15 -44 -34 -21 -18 -55 -41 -77 -51 -21 -10 -39 -22 -39 -27 0 -4 -7 -8
-15 -8 -8 0 -15 -3 -15 -7 0 -5 -25 -21 -55 -38 -30 -16 -55 -33 -55 -37 0 -4
-16 -8 -35 -8 -19 0 -35 -4 -35 -10 0 -5 -9 -10 -20 -10 -11 0 -20 -4 -20 -10
0 -5 -14 -10 -31 -10 -17 0 -37 -7 -45 -15 -10 -10 -35 -15 -75 -15 -33 0 -59
-4 -59 -10 0 -6 -28 -10 -65 -10 -37 0 -65 4 -65 10 0 6 -20 10 -44 10 -26 0
-51 6 -60 15 -8 8 -28 15 -45 15 -17 0 -31 5 -31 10 0 6 -16 10 -35 10 -19 0
-35 5 -35 10 0 6 -11 10 -25 10 -15 0 -36 11 -49 25 -13 14 -31 25 -40 25 -9
0 -16 8 -16 20 0 13 -7 20 -20 20 -12 0 -26 5 -33 10 -57 48 -74 60 -87 60 -9
0 -22 9 -30 20 -8 11 -20 20 -27 20 -7 0 -33 20 -57 45 -25 25 -50 45 -56 45
-5 0 -10 4 -10 10 0 5 -41 50 -90 100 -50 50 -90 96 -90 103 0 7 -9 19 -20 27
-11 8 -20 23 -20 33 0 10 -7 25 -15 33 -8 9 -15 24 -15 35 0 10 -4 19 -10 19
-5 0 -10 16 -10 35 0 19 -4 35 -10 35 -6 0 -10 33 -10 79 0 54 -4 81 -12 84
-9 3 -6 11 10 24 17 16 22 31 22 74 1 30 7 65 15 79 8 14 14 35 15 48 0 12 5
22 10 22 6 0 10 7 10 15 0 18 97 115 115 115 8 0 15 5 15 10 0 6 9 10 19 10
11 0 23 5 26 10 3 6 21 9 38 9 20 -1 25 -3 13 -6 -11 -3 -25 -10 -32 -17 -6
-6 -24 -20 -38 -30 -14 -10 -26 -25 -26 -32 0 -8 -4 -14 -9 -14 -4 0 -16 -25
-26 -56 -18 -58 -15 -165 5 -172 6 -2 10 -12 10 -23 0 -10 5 -19 10 -19 6 0
10 -6 10 -13 0 -7 12 -21 27 -32 14 -11 31 -25 37 -31 47 -46 203 -62 265 -27
17 10 31 21 31 26 0 4 5 7 10 7 17 0 58 45 85 94 19 35 25 59 25 110 0 60 -20
125 -42 134 -5 2 -8 11 -8 20 0 10 -14 26 -30 37 -35 23 -39 35 -10 28 11 -3
20 -9 20 -14 0 -5 7 -9 16 -9 18 0 61 -45 70 -72 3 -10 10 -18 15 -18 5 0 9
-9 9 -20 0 -11 5 -20 10 -20 6 0 10 -13 10 -29 0 -17 4 -32 9 -35 5 -3 12 -26
15 -51 5 -31 12 -45 22 -45 13 0 15 12 9 78 -4 42 -11 82 -15 87 -4 6 -10 23
-14 39 -10 40 -120 147 -176 170 -25 10 -53 22 -62 27 -25 13 -238 12 -238 -1
0 -5 -7 -10 -16 -10 -23 0 -134 -51 -134 -61 0 -5 -5 -9 -11 -9 -20 0 -88 -76
-124 -140 -31 -55 -35 -70 -36 -138 -1 -67 -2 -72 -9 -37 -5 22 -6 136 -3 253
5 192 4 212 -11 212 -12 0 -16 10 -16 44 0 24 5 46 11 48 11 4 23 52 36 141 3
20 9 40 14 43 5 3 9 14 9 25 0 10 5 19 10 19 6 0 10 18 10 41 0 23 7 47 15 55
8 9 15 24 15 34 0 10 9 22 20 25 11 3 20 15 20 26 0 10 6 19 13 19 8 0 19 11
26 24 9 17 24 25 49 28 40 5 150 -8 172 -21 37 -20 325 -61 430 -61 80 0 280
30 280 41 0 5 9 9 20 9 28 0 28 46 0 55 -11 3 -37 22 -58 41 -20 19 -49 46
-64 60 -16 14 -28 30 -28 35 0 5 9 2 19 -8 11 -10 62 -39 113 -65z m-674 -874
c16 -17 15 -62 -2 -80 -18 -18 -63 -18 -81 0 -18 17 -21 35 -12 68 10 38 62
44 95 12z m1220 4 c16 -16 15 -66 -2 -84 -8 -8 -26 -14 -41 -14 -15 0 -33 6
-41 14 -17 18 -18 62 -1 81 15 17 69 19 85 3z"/>
<path d="M1075 2010 c-16 -4 -51 -8 -77 -9 -27 0 -48 -5 -48 -11 0 -5 -13 -10
-30 -10 -16 0 -30 -4 -30 -10 0 -5 -6 -10 -13 -10 -23 0 -77 -31 -90 -51 -6
-10 -16 -19 -22 -19 -33 0 -48 -122 -17 -139 19 -10 69 -4 78 10 3 5 14 9 25
9 10 0 19 4 19 8 0 10 118 52 180 65 25 5 79 11 120 14 41 2 79 9 85 14 5 5
16 9 25 9 43 0 66 72 33 101 -38 31 -167 47 -238 29z"/>
<path d="M1939 1021 c-36 -81 -209 -81 -290 0 -15 15 -24 17 -39 9 -27 -14
-28 -108 -2 -148 43 -67 99 -122 123 -122 11 0 19 -4 19 -10 0 -5 20 -10 45
-10 25 0 45 5 45 10 0 6 9 10 20 10 24 0 42 15 99 85 38 46 41 54 41 111 0 46
-4 65 -18 77 -25 23 -28 22 -43 -12z"/>
<path d="M1473 700 c-78 -3 -145 -8 -149 -13 -4 -4 -2 -13 4 -19 7 -7 12 -18
12 -25 0 -16 94 -113 110 -113 5 0 10 -4 10 -10 0 -5 9 -10 20 -10 11 0 20 -4
20 -10 0 -5 6 -10 14 -10 8 0 29 -8 48 -17 18 -9 41 -20 50 -25 24 -11 354
-10 376 1 9 5 35 17 57 27 22 11 42 22 43 27 2 4 12 7 23 7 10 0 19 5 19 10 0
6 5 10 10 10 22 0 110 87 110 109 0 5 6 11 12 13 16 6 -9 32 -37 41 -28 9
-579 14 -752 7z"/>
</g>
</svg>
